<?xml version="1.0" standalone="no"?>
<!DOCTYPE svg PUBLIC "-//W3C//DTD SVG 20010904//EN"
 "http://www.w3.org/TR/2001/REC-SVG-20010904/DTD/svg10.dtd">
<svg version="1.0" xmlns="http://www.w3.org/2000/svg"
 width="1040.000000pt" height="1040.000000pt" viewBox="0 0 1040.000000 1040.000000"
 preserveAspectRatio="xMidYMid meet">
<metadata>
Created by potrace 1.14, written by Peter Selinger 2001-2017
</metadata>
<g transform="translate(0.000000,1040.000000) scale(0.100000,-0.100000)"
fill="#000000" stroke="none">
<path d="M8800 10370 c-9 -6 -10 -10 -3 -10 6 0 15 5 18 10 8 12 4 12 -15 0z"/>
<path d="M8690 10336 c-36 -12 -162 -55 -280 -95 -118 -41 -219 -78 -224 -82
-6 -5 -18 -9 -28 -9 -9 0 -34 -7 -55 -16 -43 -19 -40 -18 -193 -74 -179 -65
-302 -112 -335 -126 -16 -7 -68 -27 -115 -45 -47 -17 -89 -35 -95 -40 -5 -5
-19 -9 -31 -9 -12 0 -27 -7 -34 -15 -7 -8 -19 -15 -26 -15 -7 0 -69 -23 -136
-51 -68 -28 -148 -61 -178 -74 -72 -30 -125 -53 -177 -76 -23 -10 -44 -19 -47
-19 -3 0 -34 -13 -68 -29 -97 -45 -163 -74 -168 -75 -3 -1 -21 -9 -40 -18 -19
-9 -55 -25 -80 -36 -25 -11 -85 -39 -135 -63 -49 -23 -93 -43 -96 -43 -7 -1
-99 -45 -119 -57 -8 -5 -22 -12 -30 -15 -8 -3 -147 -71 -308 -150 -161 -79
-295 -143 -299 -143 -3 0 -9 -3 -12 -8 -3 -4 -40 -25 -81 -46 -156 -80 -295
-155 -307 -166 -7 -6 -17 -11 -24 -11 -6 0 -23 -8 -37 -19 -15 -10 -55 -34
-90 -52 -35 -19 -71 -38 -80 -44 -9 -5 -49 -28 -87 -49 -39 -21 -103 -59 -142
-82 -40 -24 -77 -44 -82 -44 -5 0 -11 -3 -13 -7 -1 -5 -15 -15 -30 -23 -87
-48 -309 -184 -319 -196 -6 -8 -16 -14 -21 -14 -5 0 -35 -17 -66 -37 -32 -21
-65 -42 -73 -48 -56 -35 -362 -241 -429 -288 -118 -84 -228 -163 -255 -184
-45 -35 -47 -36 -90 -68 -22 -16 -45 -34 -50 -39 -6 -6 -26 -22 -45 -35 -19
-13 -42 -30 -50 -38 -8 -7 -49 -40 -90 -74 -122 -98 -217 -179 -309 -263 -76
-69 -360 -355 -411 -415 -30 -35 -60 -69 -65 -75 -6 -6 -41 -51 -78 -101 -36
-49 -73 -98 -82 -107 -8 -10 -15 -22 -15 -27 0 -5 -6 -16 -14 -24 -20 -20
-126 -209 -126 -224 0 -7 -5 -13 -10 -13 -6 0 -9 -3 -8 -7 1 -5 -4 -21 -11
-38 -7 -16 -14 -37 -16 -46 -2 -8 -10 -31 -17 -50 -14 -33 -20 -57 -34 -144
-22 -136 2 -278 66 -391 29 -50 124 -155 175 -194 44 -34 198 -120 214 -120 5
0 26 -8 47 -17 22 -9 41 -17 44 -18 3 -1 12 -4 20 -7 84 -31 326 -83 440 -94
25 -3 63 -7 85 -10 202 -24 719 -24 975 1 25 2 74 6 110 10 159 14 171 15 295
30 17 2 59 6 95 9 36 3 75 8 87 10 12 3 53 8 90 11 37 4 75 9 83 10 8 1 40 6
70 10 30 3 69 9 85 12 17 2 46 6 65 9 95 11 117 13 145 18 34 6 78 12 150 21
60 7 110 14 150 20 53 8 129 17 165 20 19 2 35 4 35 5 0 2 68 9 135 15 30 2
55 5 55 5 0 2 37 6 160 16 189 15 595 8 626 -12 3 -2 25 -6 49 -9 23 -3 46 -8
51 -11 5 -3 22 -7 37 -9 155 -23 423 -140 538 -237 66 -56 164 -171 164 -194
0 -4 6 -15 14 -23 18 -22 54 -128 64 -194 13 -82 5 -231 -18 -327 -25 -106
-24 -103 -31 -115 -4 -5 -12 -28 -19 -50 -16 -52 -129 -286 -147 -303 -7 -7
-13 -19 -13 -27 0 -7 -3 -15 -7 -17 -5 -1 -37 -48 -73 -102 -36 -55 -70 -104
-75 -110 -6 -6 -33 -40 -60 -76 -27 -36 -52 -67 -55 -70 -3 -3 -27 -32 -55
-65 -27 -33 -63 -76 -80 -95 -57 -65 -431 -435 -500 -495 -38 -33 -85 -74
-105 -91 -19 -17 -50 -44 -69 -60 -19 -16 -44 -38 -57 -49 -12 -11 -35 -30
-51 -42 -15 -12 -66 -53 -113 -91 -77 -62 -470 -359 -516 -389 -11 -7 -53 -36
-95 -65 -41 -29 -83 -57 -92 -63 -9 -5 -50 -34 -92 -63 -42 -28 -81 -52 -86
-52 -5 0 -9 -5 -9 -10 0 -6 -8 -14 -17 -17 -10 -4 -31 -16 -48 -27 -16 -12
-39 -27 -50 -33 -11 -7 -57 -36 -103 -65 -46 -29 -94 -60 -107 -68 -33 -21
-385 -233 -407 -245 -10 -5 -82 -47 -160 -91 -187 -107 -212 -121 -272 -152
-28 -14 -63 -34 -78 -44 -16 -11 -28 -16 -28 -13 0 3 -12 -2 -27 -12 -16 -10
-46 -28 -68 -38 -22 -11 -42 -23 -45 -26 -6 -7 -603 -302 -725 -359 -166 -77
-553 -249 -567 -252 -7 -2 -15 -5 -18 -8 -9 -9 -204 -90 -217 -90 -7 0 -13 -5
-13 -10 0 -6 -3 -9 -7 -8 -9 3 -215 -76 -255 -98 -15 -8 -30 -14 -34 -14 -3 1
-8 -1 -11 -4 -9 -9 27 1 107 29 41 14 83 28 92 30 9 2 27 9 40 16 13 7 25 12
28 11 3 -1 34 8 70 20 36 12 67 23 70 23 3 1 18 7 33 13 16 7 30 12 33 12 6 0
395 140 419 150 11 5 38 16 60 24 65 23 343 131 440 171 50 20 95 38 100 39 6
2 24 9 40 16 64 27 92 39 135 55 25 10 68 28 95 40 28 13 106 47 175 75 137
58 574 252 630 280 19 10 38 18 43 18 4 1 29 12 55 26 26 14 97 48 157 77 135
63 604 297 694 346 36 20 89 48 116 63 28 15 91 49 140 75 50 27 104 57 120
67 17 10 37 21 45 25 37 17 261 145 330 188 41 25 265 159 324 194 23 12 78
47 123 77 46 30 87 54 93 54 5 0 10 4 10 9 0 5 9 13 20 16 11 3 26 12 32 18 7
7 51 37 98 67 47 30 87 58 88 63 2 4 8 7 12 7 5 0 51 29 102 64 136 94 158
110 173 124 7 6 18 12 23 12 6 0 12 3 14 8 3 7 77 63 134 102 34 23 178 133
184 139 3 4 48 40 100 81 52 41 97 77 100 80 3 3 32 27 65 54 33 28 67 57 76
65 9 9 43 39 75 66 81 70 388 377 454 454 30 35 60 69 65 75 6 6 24 29 40 51
17 22 35 46 42 52 6 7 26 35 44 63 18 27 36 50 40 50 3 0 9 8 13 18 3 9 24 46
47 82 60 95 136 258 155 335 23 86 32 131 28 137 -2 3 -1 9 3 11 17 11 6 170
-18 262 -41 153 -194 309 -402 409 -62 29 -229 87 -259 89 -10 1 -18 5 -18 10
0 4 -4 6 -8 3 -4 -2 -43 4 -87 14 -44 10 -102 21 -130 25 -27 3 -63 8 -79 11
-187 32 -793 37 -1066 10 -35 -4 -165 -16 -230 -21 -35 -3 -124 -12 -190 -20
-19 -2 -60 -7 -90 -10 -30 -3 -71 -7 -90 -10 -19 -3 -55 -7 -80 -10 -25 -2
-65 -7 -90 -10 -25 -4 -58 -8 -75 -10 -77 -8 -152 -18 -170 -21 -11 -2 -44 -7
-74 -10 -30 -3 -63 -7 -74 -10 -11 -2 -45 -6 -76 -9 -31 -4 -63 -8 -71 -10
-16 -4 -43 -9 -123 -20 -27 -4 -57 -8 -67 -10 -11 -2 -50 -7 -87 -10 -37 -4
-77 -9 -88 -11 -11 -2 -45 -7 -75 -10 -30 -2 -74 -7 -98 -9 -251 -25 -616 -24
-744 0 -12 3 -40 7 -63 10 -22 4 -60 12 -85 19 -25 8 -47 14 -50 14 -16 1 -68
15 -85 22 -11 4 -49 18 -85 30 -98 34 -234 106 -298 159 -83 67 -182 180 -182
207 0 4 -6 15 -14 23 -18 22 -54 128 -64 194 -9 54 -8 195 2 252 9 55 27 134
38 165 3 8 14 38 23 65 10 28 28 74 41 103 13 29 23 55 23 59 -1 3 3 9 8 12 4
3 16 22 25 41 34 69 123 217 138 230 3 3 17 23 30 45 24 39 43 64 68 90 6 8
12 16 12 19 0 3 7 14 14 23 8 10 37 45 63 78 26 32 55 66 63 75 8 9 37 43 65
76 62 73 426 437 521 520 187 165 241 210 384 324 63 50 122 96 130 103 41 33
258 194 360 266 63 45 122 88 131 94 8 7 23 17 32 22 8 6 83 56 166 113 83 56
155 102 161 102 5 0 10 4 10 9 0 5 10 13 23 17 12 4 24 10 27 14 3 4 34 26 70
48 159 99 408 250 440 268 19 10 37 22 40 25 3 3 17 12 32 20 15 8 105 58 199
112 94 53 175 97 180 97 5 0 9 5 9 12 0 6 3 8 7 5 3 -4 11 -3 17 2 6 5 47 28
91 51 44 24 100 54 125 68 133 74 489 250 494 245 3 -4 6 -1 6 5 0 7 4 12 9
12 6 0 70 29 143 64 73 36 167 80 208 99 41 19 104 48 140 65 36 16 139 62
230 101 91 40 174 76 185 81 83 37 137 60 143 60 4 0 30 12 57 25 28 14 55 25
61 25 10 0 96 35 149 60 11 6 38 16 60 24 22 8 33 15 25 15 -8 0 -44 -10 -80
-23z"/>
</g>
</svg>
