<?xml version="1.0" encoding="UTF-8" standalone="no"?>
<!-- Generator: Adobe Illustrator 16.0.0, SVG Export Plug-In . SVG Version: 6.00 Build 0)  -->

<svg
   xmlns:dc="http://purl.org/dc/elements/1.1/"
   xmlns:cc="http://creativecommons.org/ns#"
   xmlns:rdf="http://www.w3.org/1999/02/22-rdf-syntax-ns#"
   xmlns:svg="http://www.w3.org/2000/svg"
   xmlns="http://www.w3.org/2000/svg"
   xmlns:sodipodi="http://sodipodi.sourceforge.net/DTD/sodipodi-0.dtd"
   xmlns:inkscape="http://www.inkscape.org/namespaces/inkscape"
   version="1.1"
   id="Layer_1"
   x="0px"
   y="0px"
   width="46.138"
   height="64.999001"
   viewBox="0 0 46.137999 64.998997"
   enable-background="new 0 0 841.89 595.28"
   xml:space="preserve"
   inkscape:version="0.48.2 r9819"
   sodipodi:docname="S II from Samsung Galaxy S II logo.svg"><metadata
   id="metadata183"><rdf:RDF><cc:Work
       rdf:about=""><dc:format>image/svg+xml</dc:format><dc:type
         rdf:resource="http://purl.org/dc/dcmitype/StillImage" /><dc:title></dc:title></cc:Work></rdf:RDF></metadata><defs
   id="defs181">
	
	

		
	
			
			
			
		</defs><sodipodi:namedview
   pagecolor="#ffffff"
   bordercolor="#666666"
   borderopacity="1"
   objecttolerance="10"
   gridtolerance="10"
   guidetolerance="10"
   inkscape:pageopacity="0"
   inkscape:pageshadow="2"
   inkscape:window-width="1600"
   inkscape:window-height="837"
   id="namedview179"
   showgrid="false"
   fit-margin-top="0"
   fit-margin-left="0"
   fit-margin-right="0"
   fit-margin-bottom="0"
   inkscape:zoom="2.2426716"
   inkscape:cx="-67.216855"
   inkscape:cy="-5.6809253"
   inkscape:window-x="-8"
   inkscape:window-y="-8"
   inkscape:window-maximized="1"
   inkscape:current-layer="Layer_1" />



<path
   style="fill:#000000"
   inkscape:connector-curvature="0"
   id="path85"
   d="m 31.739,31.290999 c -0.178,0.008 -4.4,0.38 -8.977,1.069 -3.763,0.563 -5.815,0.467 -7.176,0.287 -2.874,-0.491 -4.815,-1.625 -5.492,-3.445 -2.331,-6.269 11.164,-18.246 30.147,-26.749 1.993,-0.892 3.958,-1.70900003 5.897,-2.4530000292014 C 42.758,1.077999 39.26,2.341999 35.7,3.791999 c -21.322,8.678 -36.613,20.604 -34.159,26.641 1.238,3.043 6.753,4.003 14.652,3.101 0.014,-0.004 0.033,-0.004 0.048,-0.004 4.595,-0.431 10.096,-1.572 13.504,-1.296 3.319,0.41 5.563,1.581 6.3,3.564 2.329,6.27 -11.168,18.245 -30.149,26.751 -1.986,0.891 -3.958,1.71 -5.896,2.45 3.38,-1.072 6.878,-2.344 10.439,-3.79 21.321,-8.675 36.612,-20.604 34.157,-26.643 -1.139,-2.804 -5.923,-3.841 -12.857,-3.275 z" />


</svg>